# xmcd CD database file
#
# Track frame offsets:
#	150
#	14013
#	36498
#	61488
#	76353
#	93958
#	112785
#	124838
#	145198
#	157603
#
# Disc length: 2461 seconds
#
# Revision: 1
# Processed by: cddbd v1.5.2PL0 Copyright (c) Steve Scherf et al.
# Submitted via: CDex 1.51
#
DISCID=79099b0a
DTITLE=Wall Of Voodoo - Call Of The Wes West
DYEAR=1982
DGENRE=Avantgarde
TTITLE0=Tomorrow
TTITLE1=Lost Weekend
TTITLE2=Factory
TTITLE3=Look At Their Way
TTITLE4=Hands Of Love
TTITLE5=Mexican Radio
TTITLE6=Spy World
TTITLE7=They Don't Want Me
TTITLE8=On Interstate 15
TTITLE9=Call Of The West
EXTD=YEAR: 1982
EXTT0=
EXTT1=
EXTT2=
EXTT3=
EXTT4=
EXTT5=
EXTT6=
EXTT7=
EXTT8=
EXTT9=
PLAYORDER=
